# xmcd CD database file
#
# Track frame offsets:
#	150
#	21705
#	46022
#
# Disc length: 962 seconds
#
# Revision: 1
# Processed by: cddbd v1.4PL0 Copyright (c) Steve Scherf et al.
# Submitted via: CDex 1.50Beta3
#
DISCID=1f03c003
DTITLE=hiro:n - Blood Type AB-Lover
DYEAR=2000
DGENRE=JPop
TTITLE0=Blood Type AB-Lover
TTITLE1=Summers
TTITLE2=Summers(YUKIHIRO FUKUTOMI REMIX)
EXTD=YEAR: 2000
EXTT0=
EXTT1=
EXTT2=
PLAYORDER=
